<?xml version="1.0" encoding="UTF-8" standalone="no"?>
<svg width="158px" height="28px" viewBox="0 0 158 28" version="1.1" xmlns="http://www.w3.org/2000/svg" xmlns:xlink="http://www.w3.org/1999/xlink">
    <!-- Generator: sketchtool 41.2 (35397) - http://www.bohemiancoding.com/sketch -->
    <title>FD5931EE-EA11-4D50-8C91-71164D1F733D</title>
    <desc>Created with sketchtool.</desc>
    <defs></defs>
    <g id="Components" stroke="none" stroke-width="1" fill="none" fill-rule="evenodd">
        <g id="CP-086-Login-03D" transform="translate(-221.000000, -448.000000)">
            <g transform="translate(121.000000, 408.000000)" id="My-Logo">
                <g transform="translate(100.000000, 40.000000)">
                    <g id="My_european_tour">
                        <path d="M88.46025,17.617 C88.46025,16.59 89.28975,15.7605 90.31675,15.7605 L96.2615,15.7605 C97.54525,15.7605 98.73025,15.85925 99.6585,16.96525 C100.251,17.63675 100.409,18.486 100.409,19.1575 C100.409,20.00675 100.11275,21.0535 99.303,21.66575 C98.69075,22.12 97.90075,22.278 97.4465,22.357 L100.883,27.097 L97.5255,27.097 L94.50375,22.53475 L91.26475,22.53475 L91.26475,27.097 L88.42075,27.097 L88.42075,17.59725 L88.46025,17.617 Z M91.30425,20.54 L95.827,20.54 C96.43925,20.54 97.54525,20.461 97.54525,19.197 C97.54525,18.97975 97.5255,18.58475 97.328,18.30825 C97.11075,18.03175 96.854,17.775 95.72825,17.775 L91.34375,17.775 L91.34375,20.54 L91.30425,20.54 Z" id="Fill-1" fill="#1072E2"></path>
                        <path d="M55.87275,15.74075 L55.87275,17.79475 L51.666,17.79475 L51.666,27.0575 L48.822,27.0575 L48.822,17.8145 L44.61525,17.8145 L44.61525,17.59725 C44.61525,16.57025 45.44475,15.74075 46.47175,15.74075 L55.87275,15.74075" id="Fill-3" fill="#1072E2"></path>
                        <path d="M73.48975,17.617 C73.48975,16.59 74.31925,15.7605 75.34625,15.7605 L76.314,15.7605 L76.314,22.3175 C76.314,23.5025 76.41275,23.87775 76.867,24.35175 C77.42,24.90475 78.368,25.18125 79.57275,25.18125 C80.7775,25.18125 81.70575,24.94425 82.2785,24.35175 C82.73275,23.8975 82.8315,23.52225 82.8315,22.3175 L82.8315,17.59725 C82.8315,16.57025 83.661,15.74075 84.688,15.74075 L85.65575,15.74075 L85.65575,22.29775 C85.636,23.5025 85.636,24.648 84.66825,25.69475 C83.48325,26.99825 81.27125,27.43275 79.553,27.43275 C77.83475,27.43275 75.58325,26.99825 74.43775,25.69475 C73.47,24.62825 73.47,23.5025 73.45025,22.29775 L73.45025,17.5775" id="Fill-5" fill="#1072E2"></path>
                        <path d="M64.08875,25.41825 C66.22175,25.41825 68.098,23.858 68.098,21.42875 C68.098,18.9995 66.22175,17.43925 64.08875,17.43925 C61.95575,17.43925 60.0795,18.9995 60.0795,21.42875 C60.0795,23.858 61.95575,25.41825 64.08875,25.41825 M57.1565,21.42875 C57.1565,17.51825 60.02025,15.405 64.08875,15.405 C68.15725,15.405 71.021,17.51825 71.021,21.42875 C71.021,25.33925 68.177,27.4525 64.08875,27.4525 C60.02025,27.4525 57.1565,25.33925 57.1565,21.42875" id="Fill-7" fill="#1072E2"></path>
                        <path d="M55.87275,0.33575 L55.87275,2.38975 L47.5185,2.38975 L47.5185,4.898 L55.87275,4.898 L55.87275,6.952 L47.5185,6.952 L47.5185,9.5985 L55.87275,9.5985 L55.87275,11.6525 L44.9905,11.6525 L44.9905,2.19225 C44.9905,1.16525 45.82,0.33575 46.847,0.33575 L55.87275,0.33575" id="Fill-9" fill="#1072E2"></path>
                        <path d="M128.059,0.33575 L128.059,2.38975 L119.70475,2.38975 L119.70475,4.898 L128.059,4.898 L128.059,6.952 L119.70475,6.952 L119.70475,9.5985 L128.059,9.5985 L128.059,11.6525 L117.17675,11.6525 L117.17675,2.19225 C117.17675,1.16525 118.00625,0.33575 119.03325,0.33575 L128.059,0.33575" id="Fill-11" fill="#1072E2"></path>
                        <path d="M137.1045,3.8315 C137.0255,3.69325 136.96625,3.53525 136.92675,3.37725 C136.8675,3.239 136.84775,3.081 136.828,2.923 C136.76875,3.06125 136.749,3.1995 136.72925,3.318 C136.67,3.45625 136.6305,3.61425 136.5515,3.7525 L134.83325,7.52475 L138.82275,7.52475 L137.1045,3.8315 Z M135.30725,0.33575 L138.38825,0.33575 L143.859,11.67225 L140.67925,11.67225 L139.7115,9.53925 L133.905,9.53925 L132.93725,11.67225 L129.8365,11.67225 L135.30725,0.33575 L135.30725,0.33575 Z" id="Fill-13" fill="#1072E2"></path>
                        <path d="M103.70725,2.212 C103.70725,1.185 104.53675,0.3555 105.56375,0.3555 L110.69875,0.3555 C111.9035,0.3555 113.46375,0.41475 114.37225,1.6985 C114.76725,2.291 114.9845,3.06125 114.9845,3.93025 C114.9845,5.03625 114.629,5.74725 114.21425,6.26075 C113.286,7.3865 111.9035,7.44575 110.46175,7.44575 L106.492,7.44575 L106.492,11.71175 L103.70725,11.71175 L103.70725,2.212 Z M106.492,5.43125 L110.0075,5.43125 C110.916,5.43125 112.18,5.4115 112.18,3.9105 C112.18,3.29825 111.96275,2.923 111.706,2.6465 C111.33075,2.291 110.89625,2.291 109.731,2.291 L106.55125,2.291 L106.55125,5.43125 L106.492,5.43125 Z" id="Fill-15" fill="#1072E2"></path>
                        <path d="M73.48975,2.212 C73.48975,1.185 74.31925,0.3555 75.34625,0.3555 L81.291,0.3555 C82.57475,0.3555 83.75975,0.45425 84.688,1.56025 C85.2805,2.23175 85.4385,3.081 85.4385,3.7525 C85.4385,4.60175 85.14225,5.6485 84.3325,6.26075 C83.72025,6.715 82.93025,6.873 82.476,6.952 L85.9125,11.692 L82.555,11.692 L79.53325,7.12975 L76.314,7.12975 L76.314,11.692 L73.47,11.692 L73.48975,2.212 Z M76.33375,5.11525 L80.8565,5.11525 C81.46875,5.11525 82.57475,5.03625 82.57475,3.77225 C82.57475,3.555 82.555,3.16 82.3575,2.8835 C82.14025,2.607 81.8835,2.35025 80.75775,2.35025 L76.33375,2.35025 L76.33375,5.11525 L76.33375,5.11525 Z" id="Fill-17" fill="#1072E2"></path>
                        <path d="M58.51925,2.212 C58.51925,1.185 59.34875,0.3555 60.37575,0.3555 L61.3435,0.3555 L61.3435,6.9125 C61.3435,8.0975 61.44225,8.47275 61.8965,8.94675 C62.4495,9.49975 63.3975,9.77625 64.60225,9.77625 C65.807,9.77625 66.73525,9.53925 67.308,8.94675 C67.76225,8.4925 67.861,8.11725 67.861,6.9125 L67.861,2.19225 C67.861,1.16525 68.6905,0.33575 69.7175,0.33575 L70.68525,0.33575 L70.68525,6.89275 C70.705,8.07775 70.705,9.2035 69.757,10.27 C68.572,11.5735 66.36,12.008 64.64175,12.008 C62.9235,12.008 60.7115,11.5735 59.5265,10.27 C58.55875,9.2035 58.55875,8.07775 58.539,6.873 L58.51925,2.212" id="Fill-19" fill="#1072E2"></path>
                        <path d="M94.2865,10.01325 C96.4195,10.01325 98.29575,8.453 98.29575,6.02375 C98.29575,3.5945 96.4195,2.03425 94.2865,2.03425 C92.1535,2.03425 90.27725,3.5945 90.27725,6.02375 C90.27725,8.453 92.13375,10.01325 94.2865,10.01325 M87.31475,6.02375 C87.31475,2.11325 90.19825,0 94.2865,0 C98.37475,0 101.21875,2.11325 101.21875,6.02375 C101.21875,9.93425 98.355,12.0475 94.2865,12.0475 C90.218,12.0475 87.31475,9.93425 87.31475,6.02375" id="Fill-21" fill="#1072E2"></path>
                        <path d="M157.98025,0.33575 L157.98025,11.67225 L155.17575,11.67225 L149.547,5.27325 C148.9545,4.582 148.7175,4.28575 148.06575,3.476 C148.14475,4.32525 148.14475,4.5425 148.1645,5.4115 L148.1645,11.6525 L145.45875,11.6525 L145.45875,2.23175 C145.45875,1.20475 146.28825,0.37525 147.31525,0.37525 L148.283,0.37525 L153.83275,6.69525 C154.50425,7.4655 154.6425,7.6235 155.33375,8.51225 C155.235,7.44575 155.235,7.1495 155.235,6.162 L155.235,2.23175 C155.235,1.20475 156.0645,0.37525 157.0915,0.37525 L158,0.37525" id="Fill-23" fill="#1072E2"></path>
                        <path d="M2.42925,0.33575 C1.08625,0.33575 0,1.44175 0,2.765 L0,27.07725 L36.47825,27.07725 C37.82125,27.07725 38.9075,25.97125 38.9075,24.648 L38.9075,0.33575 L2.42925,0.33575" id="Fill-25" fill="#1072E2"></path>
                        <path d="M9.42075,7.2285 C9.638,7.6235 9.89475,8.137 10.191,8.74925 C10.48725,9.3615 10.7835,10.01325 11.0995,10.7045 C11.4155,11.39575 11.75125,12.1265 12.02775,12.877 C12.34375,13.6275 12.64,14.299 12.9165,14.9705 C13.193,14.31875 13.4695,13.6275 13.80525,12.877 C14.12125,12.1265 14.457,11.43525 14.7335,10.7045 C15.0495,10.01325 15.34575,9.34175 15.642,8.74925 C15.93825,8.137 16.195,7.6235 16.41225,7.2285 L19.05875,7.2285 C19.197,8.07775 19.29575,9.0455 19.41425,10.112 C19.53275,11.1785 19.592,12.2845 19.69075,13.4695 C19.76975,14.615 19.84875,15.78025 19.908,16.9455 C19.987,18.091 20.04625,19.197 20.08575,20.24375 L17.32075,20.24375 C17.301,18.97975 17.24175,17.617 17.16275,16.116 C17.1035,14.615 17.00475,13.114 16.88625,11.613 C16.669,12.14625 16.41225,12.719 16.13575,13.351 C15.85925,13.983 15.6025,14.63475 15.30625,15.247 C15.02975,15.89875 14.773,16.511 14.536,17.064 C14.299,17.6565 14.08175,18.1305 13.88425,18.565 L11.86975,18.565 C11.692,18.17 11.47475,17.6565 11.218,17.064 C10.981,16.4715 10.7045,15.85925 10.44775,15.247 C10.17125,14.59525 9.9145,13.96325 9.61825,13.351 C9.34175,12.69925 9.085,12.14625 8.86775,11.613 C8.7295,13.114 8.6505,14.615 8.59125,16.116 C8.532,17.617 8.4925,18.97975 8.43325,20.24375 L5.58925,20.24375 C5.6485,19.21675 5.688,18.1305 5.767,16.9455 C5.846,15.8 5.90525,14.615 5.98425,13.4695 C6.06325,12.324 6.162,11.19825 6.26075,10.112 C6.3595,9.0455 6.478,8.07775 6.61625,7.2285 L9.42075,7.2285 Z" id="Fill-27" fill="#FFFFFF"></path>
                        <path d="M27.27475,12.561 C27.808,11.67225 28.30175,10.7835 28.77575,9.9145 C29.24975,9.02575 29.68425,8.137 30.07925,7.2285 L33.2985,7.2285 C32.56775,8.63075 31.85675,9.9935 31.06675,11.297 C30.31625,12.6005 29.48675,13.92375 28.65725,15.26675 L28.65725,20.224 L25.73425,20.224 L25.73425,15.2865 C24.885,13.983 24.07525,12.64 23.305,11.31675 C22.53475,10.01325 21.804,8.63075 21.07325,7.2285 L24.49,7.2285 C24.885,8.137 25.3195,9.02575 25.77375,9.9145 C26.24775,10.7835 26.72175,11.67225 27.27475,12.561" id="Fill-29" fill="#FFFFFF"></path>
                    </g>
                </g>
            </g>
        </g>
    </g>
</svg>