<?xml version="1.0" encoding="UTF-8" standalone="no"?>
<svg width="165px" height="26px" viewBox="0 0 165 26" version="1.1" xmlns="http://www.w3.org/2000/svg" xmlns:xlink="http://www.w3.org/1999/xlink">
    <!-- Generator: sketchtool 41.1 (35376) - http://www.bohemiancoding.com/sketch -->
    <title>A21C3DD8-1DFE-4453-A82B-8444FDB1C0D7</title>
    <desc>Created with sketchtool.</desc>
    <defs>
        <polygon id="path-1" points="15.3501287 0.0570203252 0.30593453 0.0570203252 0.30593453 13.1249992 15.3501287 13.1249992"></polygon>
        <polygon id="path-3" points="8.26790928 7.52475976 8.26790928 0.014946748 0.0403041638 0.014946748 0.0403041638 7.52475976"></polygon>
        <polygon id="path-5" points="0.24414828 7.7601626 8.31272536 7.7601626 8.31272536 0.014946748 0.24414828 0.014946748"></polygon>
    </defs>
    <g id="Page-1" stroke="none" stroke-width="1" fill="none" fill-rule="evenodd">
        <g id="CP-001-Navigation-03D" transform="translate(-121.000000, -2649.000000)">
            <g id="CP-001-:-navigation-:-sub-brand-challange-:-03D" transform="translate(0.000000, 2629.000000)">
                <g id="top-nav" transform="translate(0.000000, 20.000000)">
                    <g id="hero-dropdown" transform="translate(121.000000, 0.000000)">
                        <g id="logo-:-challange-tour">
                            <path d="M0,25.0132646 L0,2.92919146 C0,1.70949634 0.986559731,0.720581707 2.20376568,0.720581707 L35.2626078,0.720581707 L35.2626078,22.8046549 C35.2626078,24.02435 34.2760481,25.0132646 33.0588422,25.0132646 L0,25.0132646 Z" id="Fill-1" fill="#00A8CB"></path>
                            <path d="M24.0473093,11.4764707 C23.9486533,11.4791699 23.7974706,11.4791699 23.7240679,11.3975195 C23.6708677,11.3404992 23.6765918,11.3023732 23.6984779,11.264922 C23.8604353,10.9828569 25.2924621,10.1140561 25.7665495,9.77193415 C25.825137,9.73043415 25.7759774,9.61403171 25.7604888,9.57658049 C25.723114,9.47333659 25.6130099,9.31914553 25.7281646,9.21657642 C25.7604888,9.18823496 25.8217699,9.18216179 25.8591447,9.21117805 C25.8965195,9.24390569 25.9335576,9.27393415 25.9716058,9.30632439 C26.0743023,9.40180813 26.1490519,9.4696252 26.2884497,9.50370244 C26.4406426,9.53811707 26.5995696,9.54587724 26.7547928,9.53744228 C26.9211275,9.52900732 27.0702899,9.64642195 27.2181055,9.71255203 C27.3861237,9.78812927 27.5514482,9.83266585 27.726874,9.87079187 C27.9797431,9.9271374 28.2578654,10.2422675 28.2578654,10.2611618 C28.1093764,10.5209585 28.2561818,10.8246171 28.4666255,11.1670764 C28.6023195,11.3846984 28.6090537,11.6094057 28.7255553,11.8300642 C28.8124264,11.9977512 29.1639515,12.3105195 29.1622679,12.5693041 C28.8363328,12.6570276 28.1255384,12.1829829 27.7760337,12.078052 C27.624851,12.0345276 26.9719706,11.9727837 26.8147272,11.8988935 C26.7049598,11.8479463 26.0285098,11.4494789 25.5944908,11.4434057 C25.1601352,11.4366577 24.0462991,11.4960398 24.0473093,11.4764707 M26.1338999,21.9739463 C26.1355835,21.9638244 26.1355835,21.9314341 26.1355835,21.9122024 C26.1473683,21.5414016 26.1295227,17.5425561 26.1295227,17.5425561 C26.1295227,17.5425561 28.1723411,17.3370805 28.9774142,17.3704829 C28.9993004,17.3704829 29.0723664,17.3671089 29.1349944,17.3600236 C29.4979676,17.3229098 30.861979,17.2200033 31.6316976,17.0840317 C31.6495433,17.0803203 31.689275,17.0617634 31.7306903,17.0378081 C31.8317033,16.9787634 32.1091522,16.8414423 32.6630398,16.613361 C33.6987591,16.2388488 34.3247027,16.0930927 33.8122304,14.8383081 C33.8320962,14.8545033 33.1559829,11.8401862 32.2700994,11.0891374 C32.2532639,11.1063447 31.871435,10.2726333 31.6764801,10.0712065 C31.4828719,9.87079187 31.5694063,9.42171463 30.9741034,8.92405203 C30.3727397,8.53806829 30.4394082,8.46991382 29.7036973,8.89301138 C29.7036973,8.89301138 29.0144523,8.34642602 29.092569,7.57445854 C29.155197,7.53464553 29.2488024,7.47492602 29.3097468,7.42431626 C29.5414032,6.96106829 29.0279207,6.45092195 28.7777453,6.4613813 C28.6939046,6.48533659 28.673702,6.50153171 28.6040031,6.5227878 C28.6040031,6.50659268 28.2171235,6.20428374 28.0083634,6.20057236 C28.0083634,6.20057236 27.6948866,6.12701951 27.6012813,6.24713333 C27.5834357,6.22553984 27.1332546,6.08349512 26.9675934,6.48533659 C26.9675934,6.46846667 26.7702815,6.60511301 26.7702815,6.60511301 C26.7702815,6.60511301 26.5305441,6.42696667 26.4406426,6.51435285 C26.4406426,6.51435285 26.1517456,5.93234065 25.5348932,6.28627154 C25.5348932,6.28627154 24.5520373,6.77043821 24.4981637,6.97760081 C24.4823383,6.99716992 23.9961294,6.72691382 23.6934273,6.95027154 C23.6735614,6.93340163 22.1927117,7.99215772 22.1819369,8.01611301 C22.1334507,8.1018122 21.9977567,8.2050561 21.7940472,8.32179593 L21.6735051,8.36734472 C21.6711482,8.36262114 21.6711482,8.35789756 21.670138,8.35587317 C21.7620598,8.2674748 21.8553284,7.9138813 21.9334451,7.52722276 C22.1078608,7.40575935 23.1546916,6.63750325 23.3412288,5.64993821 C23.4870242,4.87122276 22.8146147,4.57195041 21.9664427,3.86071463 C21.1428505,3.17107236 20.1603313,2.49627561 18.9256164,2.63056016 C18.3229059,2.69702764 16.8147826,2.75607236 16.380427,2.78711301 C14.6786956,2.90925122 13.2944816,4.44508862 15.4234977,5.70156016 C15.4137331,5.70527154 15.4120496,5.70830813 15.4228243,5.71168211 C15.4032951,5.92660488 15.5177765,6.39255203 15.5177765,6.39255203 L15.2713049,6.85343821 C15.2713049,6.85343821 15.3403304,8.44764553 15.6652554,9.13155203 C15.6652554,9.13155203 15.7901747,9.4500561 15.756167,9.60694634 C15.7130682,9.80567398 15.9029725,10.1919951 16.3417054,10.3772268 C15.4332623,10.6731252 14.6857665,10.9120033 14.3581479,11.0253691 C14.3581479,11.0253691 14.0227849,11.303048 13.4547555,11.4892919 C12.4325045,12.0912106 11.5836591,12.9293081 11.6072288,14.7769016 C8.42498441,16.6062756 4.57302423,18.8172472 3.60296328,19.3715927 C2.93897154,19.7515033 2.56421353,19.7167512 1.94769787,20.5534992 C1.54802333,21.0946862 1.29111375,21.9817065 1.51435235,22.6055561 C1.71065417,23.1497797 2.30259001,23.543861 2.87129287,23.4089016 C4.24271191,23.0823 3.58242398,21.3018488 3.34874737,20.4323732 C3.28073199,20.1769626 3.49521614,19.8905114 3.95347819,19.6185683 C5.22960835,18.8614463 8.72095233,16.867422 11.6264212,15.2053976 C11.7149759,16.3097024 12.0819896,17.7348732 12.8493513,19.6124951 C12.8540652,19.7366577 12.8591158,19.8584585 12.8645032,19.9836333 C12.8645032,19.9836333 12.8005283,20.5639585 12.9746073,20.8672797 C12.9954833,20.8672797 12.7604599,22.7637959 12.7412674,23.6255114 C12.7412674,23.6366455 12.7439611,23.6724098 12.7490117,23.6953528 C12.7732548,23.8529179 12.8695538,24.4683325 12.930835,25.0132309 L26.2729611,25.0132309 C26.1564595,24.2915358 26.0325503,23.2408772 26.1338999,21.9739463" id="Fill-3" fill="#FFFFFF"></path>
                            <path d="M53.780031,0.720581707 L53.780031,2.95820772 L44.7184967,2.95820772 L44.7184967,5.66886626 L53.780031,5.66886626 L53.780031,7.90649228 L44.7184967,7.90649228 L44.7184967,10.7845004 L53.780031,10.7845004 L53.780031,13.0221264 L41.9968713,13.0221264 L41.9968713,2.73856138 C41.9968713,1.62413455 42.8985802,0.720581707 44.0107326,0.720581707 L53.780031,0.720581707 Z" id="Fill-5" fill="#00A8CB"></path>
                            <path d="M131.949637,0.720581707 L131.949637,2.95820772 L122.888102,2.95820772 L122.888102,5.66886626 L131.949637,5.66886626 L131.949637,7.90649228 L122.888102,7.90649228 L122.888102,10.7845004 L131.949637,10.7845004 L131.949637,13.0221264 L120.16614,13.0221264 L120.16614,2.73856138 C120.16614,1.62413455 121.067849,0.720581707 122.180338,0.720581707 L131.949637,0.720581707 Z" id="Fill-7" fill="#00A8CB"></path>
                            <path d="M141.741865,4.50146789 C141.65432,4.34457764 141.585295,4.17048008 141.533442,4.01358984 C141.480915,3.85669959 141.44657,3.69980935 141.428725,3.52571179 C141.376872,3.68260203 141.341517,3.82228496 141.307173,3.96163049 C141.237474,4.11818333 141.184947,4.27507358 141.115921,4.43196382 L139.25459,8.52663049 L143.567506,8.52663049 L141.741865,4.50146789 Z M139.794672,0.720581707 L143.115641,0.720581707 L149.044764,13.0221264 L145.602243,13.0221264 L144.558442,10.7041996 L138.263653,10.7041996 L137.220526,13.0221264 L133.864539,13.0221264 L139.794672,0.720581707 Z" id="Fill-9" fill="#00A8CB"></path>
                            <path d="M105.593542,2.73869634 C105.593542,1.62393211 106.495251,0.720716667 107.60774,0.720716667 L113.164125,0.720716667 C114.466519,0.720716667 116.151078,0.772338618 117.123833,2.16478171 C117.557178,2.79065569 117.800619,3.64427358 117.800619,4.58392805 C117.800619,5.76617195 117.418454,6.56681829 116.967262,7.10631829 C115.9605,8.32432642 114.484028,8.39383049 112.904522,8.39383049 L108.614839,8.39383049 L108.614839,13.0222614 L105.593542,13.0222614 L105.593542,2.73869634 Z M108.614839,6.23650528 L112.400804,6.23650528 C113.390394,6.23650528 114.744641,6.21862317 114.744641,4.58392805 C114.744641,3.92262724 114.519045,3.50459065 114.223751,3.2255622 C113.806904,2.86083455 113.355713,2.86083455 112.070492,2.86083455 L108.614839,2.86083455 L108.614839,6.23650528 Z" id="Fill-11" fill="#00A8CB"></path>
                            <path d="M72.8693893,2.73869634 C72.8693893,1.62393211 73.7710982,0.720716667 74.8832507,0.720716667 L81.3201321,0.720716667 C82.7110803,0.720716667 83.9804762,0.84251748 85.0067677,2.02746057 C85.6323745,2.75927764 85.8064535,3.68273699 85.8064535,4.39734675 C85.8064535,5.33801341 85.4936501,6.45277764 84.6242654,7.11542805 C83.9639775,7.62051341 83.1114282,7.79427358 82.6248826,7.88165976 L86.3458626,13.0222614 L82.7289259,13.0222614 L79.4419648,8.07397683 L75.9472537,8.07397683 L75.9472537,13.0222614 L72.8693893,13.0222614 L72.8693893,2.73869634 Z M75.9472537,5.89573293 L80.8507586,5.89573293 C81.5117199,5.89573293 82.6939081,5.80868415 82.6939081,4.43209878 C82.6939081,4.18782236 82.659227,3.76944837 82.4508036,3.47355 C82.2245346,3.17765163 81.9292401,2.88175325 80.7113607,2.88175325 L75.9472537,2.88175325 L75.9472537,5.89573293 Z" id="Fill-13" fill="#00A8CB"></path>
                            <path d="M56.6562061,2.73869634 C56.6562061,1.62393211 57.557915,0.720716667 58.6704042,0.720716667 L59.7165615,0.720716667 L59.7165615,7.8300378 C59.7165615,9.11215163 59.8337366,9.52175325 60.3354342,10.0251516 C60.9536334,10.6449524 61.9671299,10.9138589 63.2641361,10.9138589 C64.5608055,10.9138589 65.574302,10.6449524 66.1925012,10.0251516 C66.6948723,9.52175325 66.8113739,9.11215163 66.8113739,7.8300378 L66.8113739,2.73869634 C66.8113739,1.62393211 67.712746,0.720716667 68.8255719,0.720716667 L69.872066,0.720716667 L69.872066,7.8300378 C69.8542204,9.13610691 69.8542204,10.3740215 68.8110934,11.5235378 C67.5420341,12.9348752 65.1244577,13.4052085 63.2641361,13.4052085 C61.4028043,13.4052085 58.9869114,12.9348752 57.716842,11.5235378 C56.673715,10.3740215 56.673715,9.13610691 56.6562061,7.8300378 L56.6562061,2.73869634 Z" id="Fill-15" fill="#00A8CB"></path>
                            <g id="Group-19" transform="translate(87.544550, 0.280378)">
                                <mask id="mask-2" fill="white">
                                    <use xlink:href="#path-1"></use>
                                </mask>
                                <g id="Clip-18"></g>
                                <path d="M7.82803159,10.9150398 C10.1506558,10.9150398 12.1843831,9.23412114 12.1843831,6.59127967 C12.1843831,3.94810081 10.1506558,2.26751951 7.82803159,2.26751951 C5.50540735,2.26751951 3.47134341,3.94810081 3.47134341,6.59127967 C3.47134341,9.23412114 5.50540735,10.9150398 7.82803159,10.9150398 M0.30593453,6.59127967 C0.30593453,2.35726748 3.41342933,0.0568853659 7.82803159,0.0568853659 C12.2419604,0.0568853659 15.3501287,2.35726748 15.3501287,6.59127967 C15.3501287,10.8246171 12.2419604,13.1249992 7.82803159,13.1249992 C3.41342933,13.1249992 0.30593453,10.8246171 0.30593453,6.59127967" id="Fill-17" fill="#00A8CB" mask="url(#mask-2)"></path>
                            </g>
                            <path d="M164.34745,0.720581707 L164.34745,13.0221264 L161.30393,13.0221264 L155.218237,6.08724024 C154.575121,5.33821585 154.313161,5.02443537 153.636038,4.15327276 C153.722572,5.09393943 153.722572,5.30346382 153.739744,6.24413049 L153.739744,13.0221264 L150.81845,13.0221264 L150.81845,2.73856138 C150.81845,1.62413455 151.720159,0.720581707 152.832312,0.720581707 L153.879142,0.720581707 L159.895136,7.56808171 C160.625797,8.42169959 160.764521,8.59613455 161.530199,9.55502073 C161.426156,8.38762236 161.426156,8.07384187 161.40831,7.01069959 L161.40831,2.73856138 C161.40831,1.62413455 162.310019,0.720581707 163.422172,0.720581707 L164.34745,0.720581707 Z" id="Fill-20" fill="#00A8CB"></path>
                            <path d="M60.570929,17.5031817 L60.570929,25.0133321 L58.6920883,25.0133321 L58.6920883,21.789828 L54.1589642,21.789828 L54.1589642,25.0133321 L52.27945,25.0133321 L52.27945,18.7353606 C52.27945,18.0544907 52.8299706,17.5031817 53.5091142,17.5031817 L54.1589642,17.5031817 L54.1589642,20.3963728 L58.6920883,20.3963728 L58.6920883,18.7353606 C58.6920883,18.0544907 59.2419354,17.5031817 59.9217525,17.5031817 L60.570929,17.5031817 Z" id="Fill-22" fill="#00A8CB"></path>
                            <path d="M109.365769,25.2478577 C106.670744,25.2478577 104.773384,23.8436057 104.773384,21.258122 C104.773384,18.6729756 106.670744,17.2687236 109.365769,17.2687236 C111.591084,17.2687236 113.022101,17.9023577 113.829194,19.3923089 L111.758766,19.6801098 C111.214306,18.9648252 110.428425,18.6179797 109.365769,18.6179797 C107.947884,18.6179797 106.705762,19.6446829 106.705762,21.258122 C106.705762,22.871561 107.947884,23.8979268 109.365769,23.8979268 C110.643583,23.8979268 111.851024,23.4154472 112.258106,22.3492683 L109.795074,22.3492683 L109.795074,22.2308415 C109.795074,21.5503089 110.345595,20.9983252 111.025075,20.9983252 L113.829194,20.9983252 L113.829194,25.0133659 L112.396158,25.0133659 L112.396158,24.158061 C111.589401,24.9455488 110.348962,25.2478577 109.365769,25.2478577" id="Fill-24" fill="#00A8CB"></path>
                            <path d="M48.8197905,22.4646585 C48.3790373,23.3655122 47.4493815,23.8979268 46.427804,23.8979268 C45.0095823,23.8979268 43.7684699,22.871561 43.7684699,21.258122 C43.7684699,19.6446829 45.0095823,18.6179797 46.427804,18.6179797 C47.3749687,18.6179797 48.2440167,19.0768415 48.7157471,19.8619675 L50.7120996,19.6143171 C50.0706674,18.0835407 48.4807237,17.2687236 46.427804,17.2687236 C43.7331154,17.2687236 41.8354189,18.6736504 41.8354189,21.258122 C41.8354189,23.8436057 43.7331154,25.2478577 46.427804,25.2478577 C48.668271,25.2478577 50.3568707,24.2764878 50.8632823,22.4646585 L48.8197905,22.4646585 Z" id="Fill-26" fill="#00A8CB"></path>
                            <path d="M71.7987532,18.7354618 C71.7987532,18.0542545 72.3486003,17.5032829 73.027744,17.5032829 L73.6779306,17.5032829 L73.6779306,23.6304374 L77.8393271,23.6304374 L77.8393271,25.0130959 L71.7987532,25.0130959 L71.7987532,18.7354618 Z" id="Fill-28" fill="#00A8CB"></path>
                            <path d="M79.0158248,18.7354618 C79.0158248,18.0542545 79.5656719,17.5032829 80.2448156,17.5032829 L80.8946655,17.5032829 L80.8946655,23.6304374 L85.056062,23.6304374 L85.056062,25.0130959 L79.0158248,25.0130959 L79.0158248,18.7354618 Z" id="Fill-30" fill="#00A8CB"></path>
                            <path d="M122.84992,17.5031817 L122.84992,18.8696451 L117.317777,18.8696451 L117.317777,20.5232346 L122.84992,20.5232346 L122.84992,21.8903728 L117.317777,21.8903728 L117.317777,23.6468687 L122.84992,23.6468687 L122.84992,25.0133321 L115.656115,25.0133321 L115.656115,18.7353606 C115.656115,18.0551654 116.206972,17.5031817 116.885105,17.5031817 L122.84992,17.5031817 Z" id="Fill-32" fill="#00A8CB"></path>
                            <path d="M93.4332,17.5031817 L93.4332,18.8696451 L87.9010579,18.8696451 L87.9010579,20.5232346 L93.4332,20.5232346 L93.4332,21.8903728 L87.9010579,21.8903728 L87.9010579,23.6468687 L93.4332,23.6468687 L93.4332,25.0133321 L86.2400684,25.0133321 L86.2400684,18.7353606 C86.2400684,18.0551654 86.7902522,17.5031817 87.4690592,17.5031817 L93.4332,17.5031817 Z" id="Fill-34" fill="#00A8CB"></path>
                            <path d="M66.3259057,19.8115939 C66.2733789,19.7154354 66.2306168,19.6091549 66.1989661,19.5136711 C66.1666419,19.4181874 66.1457659,19.3220289 66.1353279,19.2157484 C66.1036772,19.3122443 66.0817911,19.3969313 66.060915,19.4812809 C66.0181529,19.5777768 65.9865022,19.6729232 65.94374,19.7690817 L64.8080179,22.2685289 L67.4407518,22.2685289 L66.3259057,19.8115939 Z M65.1369833,17.5031142 L67.1649865,17.5031142 L70.7846169,25.0132646 L68.6828743,25.0132646 L68.0454826,23.5988907 L64.2029503,23.5988907 L63.5658954,25.0132646 L61.5166795,25.0132646 L65.1369833,17.5031142 Z" id="Fill-36" fill="#00A8CB"></path>
                            <path d="M103.285901,17.5031817 L103.285901,25.0133321 L101.427263,25.0133321 L97.7123439,20.7796573 C97.3190668,20.3221451 97.1594664,20.1308402 96.74565,19.5977508 C96.7988502,20.173015 96.7988502,20.300889 96.8096249,20.8748037 L96.8096249,25.0133321 L95.0260731,25.0133321 L95.0260731,18.7353606 C95.0260731,18.0551654 95.5765936,17.5031817 96.2550639,17.5031817 L96.8951492,17.5031817 L100.567306,21.6845598 C101.01311,22.2055028 101.098634,22.3114459 101.565651,22.8968321 C101.502349,22.1839093 101.502349,21.9915923 101.491238,21.34345 L101.491238,18.7353606 C101.491238,18.0551654 102.041759,17.5031817 102.720229,17.5031817 L103.285901,17.5031817 Z" id="Fill-38" fill="#00A8CB"></path>
                            <g id="Group-42" transform="translate(156.570060, 17.487695)">
                                <mask id="mask-4" fill="white">
                                    <use xlink:href="#path-3"></use>
                                </mask>
                                <g id="Clip-41"></g>
                                <path d="M0.0403041638,1.24712561 C0.0403041638,0.567267886 0.590824696,0.014946748 1.26996837,0.014946748 L5.20004523,0.014946748 C6.04922736,0.014946748 6.82433333,0.0891743902 7.45061357,0.813231301 C7.8327792,1.25960935 7.9391795,1.82441423 7.9391795,2.25999553 C7.9391795,2.83458496 7.74860175,3.51511748 7.21693697,3.91830854 C6.81322191,4.22770285 6.29300526,4.33432073 5.9956905,4.38762967 L8.26814498,7.52475976 L6.06033878,7.52475976 L4.05321163,4.50436951 L1.91914488,4.50436951 L1.91914488,7.52475976 L0.0403041638,7.52475976 L0.0403041638,1.24712561 Z M1.91914488,3.17501992 L4.9141786,3.17501992 C5.31654682,3.17501992 6.03845265,3.12171098 6.03845265,2.28057683 C6.03845265,2.13144675 6.01757664,1.87671098 5.88996362,1.69586545 C5.7519126,1.51501992 5.57177285,1.33451179 4.82865431,1.33451179 L1.91914488,1.33451179 L1.91914488,3.17501992 Z" id="Fill-40" fill="#00A8CB" mask="url(#mask-4)"></path>
                            </g>
                            <path d="M134.896521,17.5025069 L134.896521,18.8757183 L132.114625,18.8757183 L132.114625,25.0126573 L130.236457,25.0126573 L130.236457,18.8757183 L127.454561,18.8757183 L127.454561,18.7346858 C127.454561,18.0551654 128.005081,17.5025069 128.684562,17.5025069 L134.896521,17.5025069 Z" id="Fill-43" fill="#00A8CB"></path>
                            <g id="Group-47" transform="translate(146.468766, 17.487695)">
                                <mask id="mask-6" fill="white">
                                    <use xlink:href="#path-5"></use>
                                </mask>
                                <g id="Clip-46"></g>
                                <path d="M0.24414828,1.24712561 C0.24414828,0.567267886 0.794668813,0.014946748 1.47313907,0.014946748 L2.11255099,0.014946748 L2.11255099,4.35456463 C2.11255099,5.13867846 2.18427018,5.38902805 2.49000269,5.69538577 C2.8681278,6.07462154 3.486327,6.23893455 4.27793175,6.23893455 C5.06987322,6.23893455 5.68807242,6.07462154 6.06619753,5.69538577 C6.37193004,5.38902805 6.44432265,5.13867846 6.44432265,4.35456463 L6.44432265,1.24712561 C6.44432265,0.567267886 6.99349634,0.014946748 7.67398686,0.014946748 L8.31272536,0.014946748 L8.31272536,4.35456463 C8.30161393,5.15386138 8.30161393,5.90862154 7.66489569,6.61041016 C6.89012643,7.47246301 5.41399064,7.76026382 4.27793175,7.76026382 C3.14220958,7.76026382 1.66674721,7.47246301 0.891304527,6.61041016 C0.254586284,5.90862154 0.254586284,5.15386138 0.24414828,4.35456463 L0.24414828,1.24712561 Z" id="Fill-45" fill="#00A8CB" mask="url(#mask-6)"></path>
                            </g>
                            <path d="M140.50944,23.8986016 C141.927998,23.8986016 143.169447,22.871561 143.169447,21.2574472 C143.169447,19.6446829 141.927998,18.6179797 140.50944,18.6179797 C139.091555,18.6179797 137.850106,19.6446829 137.850106,21.2574472 C137.850106,22.871561 139.091555,23.8986016 140.50944,23.8986016 M135.917728,21.2574472 C135.917728,18.6729756 137.815088,17.2687236 140.50944,17.2687236 C143.205138,17.2687236 145.102498,18.6729756 145.102498,21.2574472 C145.102498,23.8436057 143.205138,25.2478577 140.50944,25.2478577 C137.815088,25.2478577 135.917728,23.8436057 135.917728,21.2574472" id="Fill-48" fill="#00A8CB"></path>
                        </g>
                    </g>
                </g>
            </g>
        </g>
    </g>
</svg>