<svg width="163" height="28" viewBox="0 0 151 27" xmlns="http://www.w3.org/2000/svg" xmlns:xlink="http://www.w3.org/1999/xlink"><title>40F5A0F8-A267-48E3-9B58-C57D08DAC520</title><defs><path id="a" d="M19.127 27H.014V.097H38.24V27H19.127z"/></defs><g fill="none" fill-rule="evenodd"><path d="M88.055 19.983h4.265c.575 0 1.602-.077 1.602-1.276 0-.212-.029-.577-.21-.836-.198-.257-.455-.515-1.514-.515h-4.143v2.627zm-2.677-2.751c0-.972.784-1.76 1.752-1.76h5.598c1.21 0 2.314.107 3.206 1.14.544.637.696 1.442.696 2.064 0 .82-.272 1.793-1.028 2.37-.576.44-1.316.592-1.74.667l3.236 4.48h-3.145l-2.859-4.312h-3.039v4.311h-2.677v-8.96zm-30.699-1.759v1.958h-3.962v8.76H48.04v-8.76h-3.963v-.2c0-.97.785-1.758 1.752-1.758h8.849m16.602 1.759c0-.972.784-1.76 1.751-1.76h.91v6.197c0 1.117.102 1.474.538 1.912.539.54 1.42.775 2.548.775 1.127 0 2.009-.235 2.546-.775.437-.438.538-.795.538-1.912v-4.437c0-.972.784-1.76 1.752-1.76h.91v6.197c-.015 1.138-.015 2.216-.922 3.218-1.104 1.23-3.206 1.64-4.824 1.64-1.618 0-3.72-.41-4.825-1.64-.907-1.002-.907-2.08-.922-3.218v-4.437m-15.377 3.6c0-3.69 2.702-5.693 6.541-5.693 3.84 0 6.541 2.004 6.541 5.693 0 3.69-2.7 5.694-6.54 5.694s-6.542-2.003-6.542-5.694m6.541 3.769c2.02 0 3.79-1.465 3.79-3.769 0-2.303-1.77-3.767-3.79-3.767s-3.788 1.464-3.788 3.767c0 2.304 1.768 3.769 3.788 3.769M54.679.905v1.95h-7.88v2.362h7.88v1.95h-7.88v2.509h7.88v1.949H44.432V2.663c0-.97.784-1.758 1.751-1.758h8.496m67.981 0v1.95h-7.881v2.362h7.88v1.95h-7.88v2.509h7.88v1.949h-10.247V2.663c0-.97.784-1.758 1.751-1.758h8.497m6.822 0h2.888l5.156 10.72h-2.994l-.907-2.02h-5.474l-.908 2.02h-2.919l5.158-10.72zm1.693 3.295a2.484 2.484 0 0 1-.181-.425 1.93 1.93 0 0 1-.091-.424 4.926 4.926 0 0 0-.106.378c-.06.138-.106.273-.166.41l-1.619 3.568h3.75L131.176 4.2zm-28.809 1.512h3.293c.86 0 2.038-.016 2.038-1.44 0-.576-.196-.94-.453-1.183-.363-.318-.755-.318-1.872-.318h-3.006v2.94zM99.74 2.664c0-.971.784-1.759 1.751-1.759h4.832c1.134 0 2.598.046 3.444 1.259.377.546.589 1.289.589 2.108 0 1.03-.333 1.728-.725 2.198-.876 1.06-2.16 1.122-3.533 1.122h-3.73v4.033H99.74V2.664zM73.956 5.415h4.265c.575 0 1.603-.076 1.603-1.276 0-.212-.03-.576-.211-.834-.197-.259-.454-.517-1.513-.517h-4.144v2.627zM71.28 2.664c0-.971.784-1.759 1.751-1.759h5.599c1.21 0 2.313.107 3.205 1.14.545.637.696 1.442.696 2.065 0 .82-.273 1.791-1.028 2.367-.575.441-1.316.593-1.74.669L83 11.625h-3.145l-2.858-4.312h-3.04v4.312H71.28V2.664zm-14.1 0c0-.971.784-1.759 1.752-1.759h.91V7.1c0 1.118.101 1.476.538 1.913.538.541 1.419.775 2.547.775 1.128 0 2.009-.234 2.547-.775.437-.437.538-.795.538-1.913V2.664c0-.971.784-1.759 1.752-1.759h.91V7.1c-.016 1.14-.016 2.217-.923 3.219-1.104 1.23-3.206 1.64-4.824 1.64-1.618 0-3.72-.41-4.824-1.64-.907-1.002-.907-2.08-.923-3.219V2.664m27.128 3.601c0-3.69 2.703-5.694 6.542-5.694s6.542 2.005 6.542 5.694c0 3.69-2.703 5.694-6.542 5.694-3.84 0-6.542-2.004-6.542-5.694m6.542 3.769c2.02 0 3.789-1.466 3.789-3.77 0-2.302-1.77-3.766-3.79-3.766s-3.788 1.464-3.788 3.767 1.769 3.769 3.789 3.769M150.834.905v10.72h-2.646l-5.293-6.043c-.56-.653-.787-.926-1.377-1.685.076.82.076 1.002.091 1.821v5.907h-2.54V2.663c0-.97.783-1.758 1.751-1.758h.91l5.232 5.968c.635.744.756.896 1.422 1.73-.09-1.017-.09-1.29-.107-2.216V2.663c0-.97.785-1.758 1.752-1.758h.805M29.659 12.727c.363.11 1.1.603 1.44.512.002-.27-.364-.595-.454-.77-.12-.23-.128-.463-.269-.69-.219-.356-.37-.672-.216-.943 0-.02-.29-.347-.552-.406a2.571 2.571 0 0 1-.529-.165c-.154-.069-.309-.191-.481-.182-.162.009-.326 0-.485-.035-.144-.035-.222-.106-.328-.206l-.118-.098c-.039-.03-.102-.024-.136.005-.12.107-.005.267.034.374.017.04.067.16.007.204-.493.356-1.981 1.26-2.149 1.554-.023.04-.028.079.026.138.077.086.234.086.336.083-.001.02 1.156-.042 1.608-.035.45.006 1.153.42 1.267.474.163.077.842.141.999.186m-1.04 11.253h.56v1.476h.346V23.98h.56v-.316h-1.466v.316" fill="#FFF"/><mask id="b" fill="#fff"><use xlink:href="#a"/></mask><path fill="#FFF" mask="url(#b)" d="M31.396 24.933l-.442-1.27h-.513v1.793h.347v-1.243l.44 1.243h.298l.441-1.243v1.243h.348v-1.793h-.486l-.433 1.27"/><path d="M37.436 23.894a2.294 2.294 0 0 1-2.29 2.298h-7.049a13.1 13.1 0 0 1-.144-3.163c.002-.01.002-.045.002-.065a377 377 0 0 0-.004-3.876l-.002-.672s2.122-.214 2.958-.18h.036c.035-.002.083-.005.127-.01.378-.04 1.795-.146 2.594-.288a.478.478 0 0 0 .103-.048c.105-.06.393-.204.968-.442l.197-.07c.956-.343 1.497-.552.998-1.778.001.002 0-.01-.005-.032-.052-.275-.52-2.233-1.166-3.32a2.202 2.202 0 0 0-.432-.55c-.013.014-.24-.471-.437-.803a1.536 1.536 0 0 0-.18-.256c-.117-.122-.136-.332-.253-.589a1.554 1.554 0 0 0-.13-.23 1.846 1.846 0 0 0-.346-.376c-.351-.226-.483-.347-.667-.331-.144.012-.319.106-.653.3 0 0-.693-.554-.636-1.34l.001-.033c.066-.042.163-.104.226-.156.241-.483-.292-1.014-.553-1.003-.087.025-.108.042-.18.064 0-.017-.402-.332-.619-.336 0 0-.325-.077-.423.049a.086.086 0 0 0-.024-.012c-.1-.038-.482-.11-.634.26 0-.018-.205.125-.205.125s-.14-.105-.25-.118c-.036-.005-.069 0-.092.023-.001-.001-.17-.34-.524-.356a.771.771 0 0 0-.417.119s-1.022.504-1.077.72c-.017.02-.522-.262-.836-.03a2.075 2.075 0 0 0-.253.163 38.44 38.44 0 0 0-1.318.947c-.037.067-.126.144-.257.23a2.82 2.82 0 0 1-.145.088l-.125.048c-.003-.005-.003-.01-.004-.012.095-.092.192-.46.273-.863.14-.097.82-.598 1.212-1.294a2.17 2.17 0 0 0 .251-.66.984.984 0 0 0-.015-.46c-.143-.503-.72-.82-1.413-1.402-.856-.718-1.877-1.42-3.16-1.28a30.52 30.52 0 0 1-1.333.092c-.546.029-1.077.053-1.31.07a3.039 3.039 0 0 0-1.213.344c-.915.494-1.331 1.432-.31 2.316.146.126.321.251.529.374-.01.003-.013.007-.001.01a.786.786 0 0 0-.002.095c.01.243.1.614.1.614l-.256.48s.072 1.66.41 2.372c0 0 .032.083.06.186a.758.758 0 0 1 .034.308c-.045.207.152.61.608.802-.944.308-1.72.557-2.06.675 0 0-.349.289-.939.483-.664.391-1.257.879-1.602 1.66-.208.467-.326 1.04-.317 1.762a9808.188 9808.188 0 0 1-8.315 4.783c-.69.395-1.08.359-1.72 1.23-.15.203-.279.455-.374.722-.167.473-.224.999-.076 1.414.16.444.572.787 1.028.85.053.007.106.015.16.014a.993.993 0 0 0 .222-.028c1.12-.267.936-1.467.688-2.409-.068-.257-.14-.495-.192-.69-.07-.265.152-.563.628-.846 1.326-.789 4.953-2.864 7.97-4.594.093 1.15.474 2.633 1.271 4.588l.016.386s-.028.255.003.52c.016.143.048.289.111.4.022 0-.222 1.974-.242 2.87 0 .012.003.05.008.073.025.164.125.805.189 1.372H.804V3.204A2.294 2.294 0 0 1 3.094.905h34.342v22.989zm0-23.797H3.085A3.095 3.095 0 0 0 0 3.195V27h35.156c1.7 0 3.084-1.39 3.084-3.097V.097h-.804z" fill="#FFF" mask="url(#b)"/></g></svg>