<svg width="164" height="25" viewBox="0 0 164 25" xmlns="http://www.w3.org/2000/svg" xmlns:xlink="http://www.w3.org/1999/xlink"><title>20C24F36-F5EF-41C7-9E0F-79D9CCC6D935</title><defs><path id="a" d="M15.718 0H.788v13.109h14.93V0z"/><path id="c" d="M14.113 12.724V.384H.684v12.34h13.429z"/></defs><g fill="none" fill-rule="evenodd"><path d="M0 24.75V2.6C0 1.377.98.385 2.188.385h32.811v22.15c0 1.224-.979 2.216-2.187 2.216H0z" fill="#C41230"/><path d="M23.868 11.173c-.098.003-.248.003-.321-.08-.052-.056-.047-.094-.025-.132.16-.283 1.582-1.155 2.053-1.498.058-.04.009-.158-.007-.195-.036-.104-.146-.258-.032-.362a.109.109 0 0 1 .13-.005c.037.033.075.063.112.095.102.096.176.164.314.199.152.033.309.042.463.033.165-.008.313.11.46.176.166.075.331.12.505.158.251.058.527.373.527.392-.147.261-.002.566.207.908.135.22.141.444.257.666.086.168.435.482.434.742-.324.087-1.03-.388-1.377-.493-.149-.044-.798-.107-.954-.18-.108-.052-.78-.45-1.21-.457-.431-.007-1.537.053-1.536.033m2.07 10.53c.003-.011.003-.043.003-.063.011-.371-.007-4.382-.007-4.382s2.028-.206 2.827-.173c.021 0 .095-.004.156-.01.361-.038 1.715-.141 2.479-.278a.46.46 0 0 0 .098-.045c.1-.06.375-.198.926-.426 1.027-.376 1.648-.523 1.14-1.78.02.016-.651-3.008-1.53-3.761-.018.017-.396-.82-.59-1.022-.192-.2-.106-.65-.697-1.15-.597-.387-.53-.456-1.261-.03 0 0-.685-.55-.607-1.324.063-.04.155-.1.216-.15.23-.464-.28-.976-.528-.966-.083.024-.103.04-.173.061 0-.016-.383-.32-.59-.323 0 0-.312-.074-.405.047-.017-.022-.464-.165-.628.239 0-.017-.196.12-.196.12s-.238-.178-.327-.09c0 0-.287-.585-.9-.23 0 0-.975.486-1.028.694-.016.02-.5-.252-.8-.028-.02-.017-1.49 1.045-1.499 1.07-.048.085-.183.189-.385.306l-.12.045c-.003-.004-.003-.009-.003-.011.09-.089.184-.443.261-.831.173-.122 1.212-.892 1.398-1.883.144-.78-.523-1.08-1.365-1.795-.818-.691-1.794-1.368-3.018-1.233-.598.066-2.095.126-2.527.157-1.689.122-3.063 1.662-.95 2.922-.01.005-.011.007 0 .011-.02.215.093.683.093.683l-.244.463s.069 1.599.392 2.284c0 0 .123.32.09.477-.044.2.145.587.58.772-.901.298-1.643.537-1.968.65 0 0-.333.279-.897.466-1.014.604-1.857 1.444-1.833 3.298-3.16 1.835-6.982 4.052-7.945 4.608-.659.381-1.03.346-1.643 1.186-.397.542-.651 1.432-.43 2.058.195.546.782.94 1.347.806 1.36-.328.706-2.114.474-2.986-.068-.256.145-.544.6-.816 1.266-.76 4.732-2.76 7.616-4.427.088 1.108.452 2.538 1.214 4.42.004.126.01.247.015.373 0 0-.064.582.109.886.02 0-.213 1.903-.232 2.767a.4.4 0 0 0 .008.07c.024.158.12.775.18 1.322h13.242a12.73 12.73 0 0 1-.137-3.048" fill="#FFF"/><path d="M53.378.385v2.243h-8.994v2.72h8.994v2.244h-8.994v2.887h8.994v2.245H41.683V2.409c0-1.118.894-2.024 2-2.024h9.695zm77.588 0v2.243h-8.993v2.72h8.993v2.244h-8.993v2.887h8.993v2.245H119.27V2.409c0-1.118.896-2.024 2-2.024h9.696zm9.72 3.792a2.88 2.88 0 0 1-.207-.49 2.228 2.228 0 0 1-.103-.49 5.643 5.643 0 0 0-.122.44c-.069.155-.12.314-.19.47l-1.847 4.108h4.282l-1.813-4.038zM138.753.384h3.297l5.885 12.34h-3.417l-1.036-2.325h-6.248l-1.035 2.325h-3.332l5.886-12.34zm-33.946 2.025c0-1.119.895-2.024 1.999-2.024h5.515c1.292 0 2.965.052 3.93 1.448.43.629.672 1.484.672 2.426 0 1.187-.38 1.99-.827 2.53-1 1.223-2.465 1.292-4.033 1.292h-4.257v4.643h-3V2.41zm2.999 3.508h3.757c.983 0 2.326-.018 2.326-1.658 0-.663-.224-1.082-.516-1.362-.415-.366-.862-.366-2.138-.366h-3.43v3.386zM72.325 2.409c0-1.119.895-2.024 2-2.024h6.389c1.38 0 2.64.121 3.658 1.31.622.734.795 1.66.795 2.377 0 .944-.31 2.063-1.175 2.727-.655.506-1.5.681-1.984.769l3.694 5.156h-3.59L78.85 7.76h-3.47v4.964h-3.055V2.41zm3.055 3.166h4.867c.656 0 1.83-.088 1.83-1.468 0-.245-.034-.664-.242-.96-.224-.298-.517-.595-1.726-.595h-4.73v3.023zM56.233 2.409c0-1.119.895-2.024 2-2.024h1.037v7.13c0 1.287.117 1.698.614 2.203.615.621 1.62.892 2.908.892 1.287 0 2.292-.27 2.907-.892.498-.505.614-.916.614-2.203V2.41c0-1.119.895-2.024 2-2.024h1.037v7.13c-.017 1.31-.017 2.552-1.053 3.706-1.259 1.416-3.659 1.887-5.505 1.887-1.847 0-4.246-.471-5.506-1.887-1.036-1.154-1.036-2.395-1.053-3.706V2.41z" fill="#C41230"/><g transform="translate(86.409)"><mask id="b" fill="#fff"><use xlink:href="#a"/></mask><path d="M8.253 10.89c2.306 0 4.324-1.685 4.324-4.336 0-2.65-2.018-4.337-4.324-4.337S3.928 3.903 3.928 6.554s2.02 4.337 4.325 4.337M.787 6.554C.787 2.307 3.871 0 8.253 0c4.381 0 7.465 2.307 7.465 6.554s-3.084 6.555-7.465 6.555C3.87 13.109.787 10.8.787 6.554" fill="#C41230" mask="url(#b)"/></g><g transform="translate(149.01)"><mask id="d" fill="#fff"><use xlink:href="#c"/></mask><path d="M14.113.385v12.339h-3.02L5.051 5.768a41.443 41.443 0 0 1-1.57-1.941c.087.944.087 1.154.103 2.098v6.799h-2.9V2.409c0-1.118.895-2.024 2-2.024h1.039l5.97 6.868c.726.857.864 1.032 1.624 1.992-.104-1.17-.104-1.485-.122-2.551V2.409c0-1.118.895-2.024 2-2.024h.918z" fill="#C41230" mask="url(#d)"/></g><path fill="#FFF" d="M27.107 22.749h-.485v-.175h1.17v.175h-.485v1.29h-.2zm2.219-.029h-.004l-.463 1.319h-.188l-.464-1.319h-.003v1.319h-.2v-1.465h.358l.416 1.208h.005l.408-1.208h.335v1.465h-.2z"/><path d="M125.53 18.46c0-.68.544-1.231 1.214-1.231h3.883c.838 0 1.605.075 2.223.797.377.446.482 1.008.482 1.444 0 .573-.188 1.254-.713 1.656-.398.308-.913.416-1.206.467l2.244 3.133h-2.182l-1.98-3.015h-2.109v3.015h-1.856V18.46zm1.856 1.923h2.958c.398 0 1.111-.053 1.111-.891 0-.15-.021-.404-.147-.584-.137-.182-.315-.362-1.048-.362h-2.874v1.837zm-23.305-3.153v1.369h-2.748v6.128h-1.855v-6.128H96.73v-.14c0-.679.543-1.23 1.214-1.23h6.136zm11.672 1.23c0-.68.544-1.231 1.215-1.231h.63v4.333c0 .782.072 1.031.375 1.338.373.377.983.542 1.766.542.781 0 1.392-.165 1.765-.542.302-.307.374-.556.374-1.338V18.46c0-.68.543-1.23 1.214-1.23h.631v4.333c-.01.796-.01 1.55-.64 2.252-.765.86-2.223 1.146-3.344 1.146-1.122 0-2.581-.286-3.346-1.146-.63-.702-.63-1.456-.64-2.252V18.46zm-6.126 5.153c1.4 0 2.626-1.025 2.626-2.636 0-1.61-1.227-2.635-2.626-2.635-1.401 0-2.628 1.025-2.628 2.635 0 1.61 1.227 2.636 2.628 2.636m-4.537-2.636c0-2.58 1.874-3.981 4.537-3.981 2.661 0 4.536 1.402 4.536 3.981 0 2.582-1.875 3.983-4.536 3.983-2.663 0-4.537-1.4-4.537-3.983m-61.766 1.458c.419.9 1.477 1.176 2.482 1.176.45 0 1.863-.074 1.863-.986 0-.54-.513-.667-.91-.742-.304-.063-1.822-.296-2.168-.36-.68-.128-2.397-.456-2.397-2.153 0-.37.104-.752.293-1.06.618-1.007 1.979-1.272 3.15-1.272 1.08 0 1.906.16 2.67.583.754.414 1.079.966 1.225 1.208l-1.759.446c-.062-.117-.208-.392-.648-.614-.493-.244-1.131-.287-1.487-.287-.817 0-1.654.159-1.654.87 0 .487.43.614.985.742.302.063 1.81.318 2.156.392.858.159 2.313.477 2.313 2.12 0 2.406-2.827 2.491-3.758 2.491-1.214 0-3.089-.211-4.04-2.109l1.684-.445zm31.89-1.368c0 .911.334 1.389.471 1.568.177.256.722 1.029 2.156 1.029 1.727 0 2.649-1.188 2.649-2.629 0-1.675-1.246-2.703-2.722-2.65-1.234.042-2.554.869-2.554 2.682m6.375-2.576c.304.371.796 1.198.796 2.448 0 2.386-1.53 4.06-4.511 4.06-2.986 0-4.567-1.642-4.567-3.974 0-2.576 1.822-3.88 4.251-3.987 1.455-.063 3.11.319 4.03 1.453m2.331.004a1.22 1.22 0 0 1 1.212-1.228h3.877c.838 0 1.602.073 2.22.795.376.444.481 1.008.481 1.443 0 .571-.187 1.251-.712 1.652-.399.31-.91.415-1.204.468l2.242 3.129h-2.179l-1.978-3.012h-2.106v3.012h-1.853v-6.26zm1.853 1.921h2.953c.397 0 1.11-.053 1.11-.89 0-.148-.021-.404-.147-.585-.136-.18-.314-.359-1.048-.359h-2.868v1.834zm-27.73-3.136v1.36h-5.45v1.645h5.45v1.36h-5.45v1.749h5.45v1.36h-7.084v-6.248c0-.678.542-1.226 1.21-1.226h5.874zm11.922 1.216c0-.682.544-1.233 1.217-1.233h.641v7.509h-1.858v-6.276zm-2.149-1.202v7.458H65.99l-3.65-4.206a23.512 23.512 0 0 1-.95-1.17c.053.57.053.695.062 1.267v4.109H59.7v-6.234c0-.676.54-1.224 1.208-1.224h.628l3.609 4.151c.438.516.522.623.98 1.204-.063-.707-.063-.897-.073-1.541v-2.59c0-.676.542-1.224 1.208-1.224h.555z" fill="#C41230"/></g></svg>