<svg width="159" height="28" viewBox="0 0 159 28" xmlns="http://www.w3.org/2000/svg"><title>6B9FC2D8-96B1-4B54-A5CC-668E081DBFCC</title><g fill="none" fill-rule="evenodd"><path d="M89.401 17.559c0-1.006.821-1.818 1.836-1.818h5.87c1.268 0 2.426.11 3.363 1.175.571.66.727 1.494.727 2.135 0 .85-.285 1.857-1.076 2.453-.602.455-1.38.611-1.824.688l3.392 4.634h-3.297l-2.997-4.458H92.21v4.458h-2.808V17.56zm2.808 2.844h4.47c.605 0 1.681-.078 1.681-1.317 0-.221-.03-.596-.22-.864-.207-.269-.477-.533-1.586-.533h-4.345v2.714zM57.21 15.74v2.026h-4.155v9.06H50.25v-9.06h-4.156v-.208a1.83 1.83 0 0 1 1.837-1.818h9.28zm17.407 1.819c0-1.006.824-1.818 1.836-1.818h.954v6.406c0 1.155.109 1.527.566 1.98.564.556 1.486.8 2.67.8 1.182 0 2.108-.244 2.672-.8.456-.453.565-.825.565-1.98v-4.588c0-1.006.82-1.818 1.835-1.818h.955v6.406c-.018 1.178-.018 2.293-.97 3.328-1.158 1.273-3.36 1.697-5.056 1.697-1.697 0-3.902-.424-5.06-1.697-.952-1.035-.952-2.15-.967-3.328v-4.588zm-9.265 7.621c2.12 0 3.972-1.515 3.972-3.895 0-2.384-1.853-3.9-3.972-3.9-2.118 0-3.972 1.516-3.972 3.9 0 2.38 1.854 3.895 3.972 3.895m-6.858-3.895c0-3.819 2.834-5.891 6.858-5.891 4.028 0 6.86 2.072 6.86 5.89 0 3.816-2.832 5.887-6.86 5.887-4.024 0-6.858-2.07-6.858-5.886M57.21.674V2.69h-8.264v2.441h8.264v2.02h-8.264v2.593h8.264v2.014H46.464V2.492A1.83 1.83 0 0 1 48.303.674h8.907zm71.283 0V2.69h-8.264v2.441h8.264v2.02h-8.264v2.593h8.264v2.014h-10.745V2.492a1.83 1.83 0 0 1 1.835-1.818h8.91zm8.93 3.408a2.5 2.5 0 0 1-.19-.441 1.738 1.738 0 0 1-.095-.438 5.25 5.25 0 0 0-.111.391c-.064.142-.11.283-.174.424l-1.697 3.692h3.93l-1.663-3.628zM135.648.676h3.029l5.407 11.085h-3.14l-.951-2.09h-5.742l-.951 2.09h-3.062l5.41-11.085zM104.46 2.493c0-1.003.823-1.818 1.835-1.818h5.069c1.188 0 2.724.045 3.609 1.302.395.562.62 1.332.62 2.178 0 1.067-.35 1.787-.763 2.274-.917 1.098-2.264 1.162-3.704 1.162h-3.91v4.17h-2.757V2.492zm2.755 3.152h3.451c.902 0 2.138-.017 2.138-1.49 0-.596-.206-.97-.477-1.221-.378-.332-.791-.332-1.96-.332h-3.152v3.043zM74.617 2.493c0-1.003.824-1.818 1.836-1.818h5.872c1.269 0 2.424.11 3.361 1.178.571.66.727 1.49.727 2.135 0 .848-.285 1.854-1.076 2.45-.602.455-1.38.61-1.824.691l3.392 4.631h-3.297l-2.997-4.458h-3.186v4.458h-2.808V2.493zm2.808 2.847h4.47c.602 0 1.681-.081 1.681-1.32 0-.221-.03-.596-.22-.864-.207-.269-.478-.534-1.586-.534h-4.345V5.34zM59.833 2.493c0-1.003.823-1.818 1.835-1.818h.955V7.08c0 1.155.108 1.527.565 1.979.564.56 1.486.801 2.671.801 1.18 0 2.107-.241 2.671-.801.457-.452.565-.824.565-1.98V2.494c0-1.003.82-1.818 1.836-1.818h.954V7.08c-.017 1.178-.017 2.293-.969 3.331-1.155 1.27-3.36 1.694-5.057 1.694-1.696 0-3.902-.424-5.057-1.694-.955-1.038-.955-2.153-.97-3.331V2.493zm35.305 7.622c2.12 0 3.972-1.515 3.972-3.899 0-2.38-1.853-3.895-3.972-3.895-2.118 0-3.972 1.515-3.972 3.895 0 2.384 1.854 3.9 3.972 3.9m-6.858-3.9c0-3.815 2.834-5.887 6.858-5.887 4.025 0 6.86 2.072 6.86 5.887 0 3.819-2.835 5.89-6.86 5.89-4.024 0-6.858-2.071-6.858-5.89M158.037.674v11.085h-2.776l-5.548-6.25a35.53 35.53 0 0 1-1.444-1.74c.078.847.078 1.035.096 1.881v6.11H145.7V2.491a1.83 1.83 0 0 1 1.835-1.818h.955l5.488 6.173c.666.77.792.925 1.49 1.789-.096-1.052-.096-1.334-.11-2.294v-3.85c0-1.002.82-1.818 1.835-1.818h.844z" fill="#0065A6"/><path d="M37.276 27.228c1.337 0 2.418-1.063 2.418-2.378V1.077H3.418C2.084 1.077 1 2.14 1 3.454v23.774h36.276z" stroke="#0065A6" stroke-width="1.077" fill="#0065A6"/><path d="M26.912 13.253c-.107.003-.27.003-.352-.086-.057-.06-.052-.101-.026-.142.174-.302 1.734-1.239 2.252-1.607.065-.044.009-.17-.009-.21-.04-.11-.16-.277-.035-.386a.12.12 0 0 1 .144-.006l.122.1c.113.104.194.176.346.214.166.037.337.045.509.037.18-.012.343.116.503.187.184.081.364.13.554.17.276.061.578.4.578.42-.16.281 0 .609.228.975.148.237.157.478.282.715.095.18.48.518.477.795-.355.095-1.13-.415-1.51-.527-.167-.047-.876-.115-1.048-.193-.119-.056-.856-.485-1.33-.49-.471-.01-1.685.055-1.685.034m2.273 11.302c.003-.011.003-.046.003-.066.012-.4-.006-4.706-.006-4.706s2.224-.222 3.102-.184c.023 0 .101-.003.172-.011.395-.041 1.88-.15 2.718-.297a.398.398 0 0 0 .107-.05c.11-.063.414-.213 1.016-.458 1.129-.404 1.81-.56 1.254-1.91.02.017-.716-3.227-1.683-4.037-.016.02-.433-.88-.645-1.095-.21-.217-.117-.7-.766-1.236-.655-.416-.581-.487-1.385-.032 0 0-.75-.589-.663-1.42.067-.044.169-.108.236-.162.253-.499-.305-1.047-.58-1.038-.09.026-.113.043-.188.066 0-.017-.423-.343-.649-.346 0 0-.344-.08-.442.05-.02-.024-.512-.176-.693.256 0-.018-.216.13-.216.13s-.258-.19-.357-.098c0 0-.314-.626-.987-.245 0 0-1.07.521-1.129.743-.017.024-.547-.267-.876-.029-.022-.017-1.635 1.121-1.646 1.148-.053.091-.201.203-.423.328l-.134.048c0-.002 0-.008-.003-.011.1-.095.201-.476.29-.89.188-.133 1.328-.96 1.532-2.023.158-.839-.573-1.159-1.499-1.925-.895-.743-1.966-1.47-3.31-1.325-.659.071-2.3.135-2.773.17-1.855.13-3.362 1.783-1.043 3.138-.011.003-.014.006-.003.009-.02.233.106.734.106.734l-.269.496s.076 1.717.429 2.452c0 0 .136.343.098.513-.047.213.16.628.638.827-.99.32-1.805.576-2.16.697 0 0-.366.3-.983.502-1.114.648-2.04 1.55-2.014 3.538-3.466 1.969-7.661 4.35-8.717 4.948-.725.41-1.132.369-1.805 1.271-.436.582-.716 1.539-.47 2.21.212.585.857 1.009 1.478.865 1.492-.352.774-2.268.517-3.204-.072-.278.16-.586.66-.877 1.391-.816 5.194-2.962 8.357-4.752.097 1.19.498 2.724 1.333 4.746l.018.399s-.07.625.12.95c.022 0-.233 2.044-.254 2.971a70.8 70.8 0 0 1 .206 1.645h14.533a14.713 14.713 0 0 1-.152-3.423" fill="#FFF"/><path fill="#FFF" d="M29.884 24.538h.587v1.527h.364v-1.527h.585v-.326h-1.536zm2.911.986l-.462-1.315h-.539v1.857h.364v-1.285l.463 1.285h.311l.463-1.285v1.285h.364V24.21h-.51z"/></g></svg>