<svg version="1" xmlns="http://www.w3.org/2000/svg" width="152" height="152" viewBox="0 0 114.000000 114.000000"><path d="M44.3 1.5c-9.4 2-19.8 7.9-27.4 15.5-22.3 22.1-22.3 57.8 0 80.1 27.6 27.6 73.7 19.9 91-15.1 21-42.8-16.8-90.7-63.6-80.5zm22.9 5.6C90.3 11.9 108 33.5 108 57c0 27.4-23.6 51-51 51-23.5 0-45.1-17.7-49.9-40.8C-.2 31.9 31.9-.2 67.2 7.1z"/><path d="M33.4 40.5c-.4.8-.4 2.2 0 3 .5 1.3 3.8 1.5 23.8 1.3l23.3-.3v-5l-23.3-.3c-20-.2-23.3 0-23.8 1.3zm0 15c-.4.8-.4 2.2 0 3 .5 1.3 3.8 1.5 23.8 1.3l23.3-.3v-5l-23.3-.3c-20-.2-23.3 0-23.8 1.3zm0 15c-.4.8-.4 2.2 0 3 .5 1.3 3.8 1.5 23.8 1.3l23.3-.3v-5l-23.3-.3c-20-.2-23.3 0-23.8 1.3z"/></svg>