<svg version="1" xmlns="http://www.w3.org/2000/svg" width="152" height="161.333" viewBox="0 0 114.000000 121.000000"><path d="M37.8 47.2l-.3 44.3-5 .2c-6.2.3-16 2.2-20 3.9-3.8 1.6-8.5 6.1-8.5 8.3 0 6.7 11 11.4 30 12.7 22.5 1.5 42-4.3 42-12.6 0-6.1-12.1-11.4-28-12.3l-4.5-.2-.3-20.7-.2-20.6 11.2-6c6.2-3.3 14.2-7.5 17.8-9.4 3.6-1.9 8-4.3 9.9-5.2 2.8-1.5 3.1-2 2-3.1C82.6 25.3 39.5 3 38.5 3c-.3 0-.6 19.9-.7 44.2zm20.9-28c7.9 4 14.3 7.7 14.3 8.3 0 .9-27.7 15.6-29.2 15.5-1 0-1-31 0-31 .4-.1 7.1 3.2 14.9 7.2zM37.5 99c.4 1.1 1.5 2 2.7 2 1.1 0 2.2-.8 2.5-2 .6-2.4 3.4-2.6 13.2-.9 7.5 1.3 15.3 4.6 14.8 6.3-.2.6-1.9 1.9-3.9 2.9-10.9 5.4-41.7 5.4-52.7 0-6.6-3.3-3.9-6.2 8.2-8.8 9.6-2.1 14.4-1.9 15.2.5zm56.8-4.8c-8.3 9.2 4.1 21.6 12.8 12.9 3.7-3.7 3.8-7.9.3-12-2.1-2.6-3.3-3.1-6.8-3.1-3.1 0-4.8.6-6.3 2.2z"/></svg>