<svg version="1" xmlns="http://www.w3.org/2000/svg" width="152" height="152" viewBox="0 0 114.000000 114.000000"><path d="M44.3 1.5c-9.4 2-19.8 7.9-27.4 15.5-22.3 22.1-22.3 57.8 0 80.1 27.6 27.6 73.7 19.9 91-15.1 21-42.8-16.8-90.7-63.6-80.5zm22.9 5.6C90.3 11.9 108 33.5 108 57c0 27.4-23.6 51-51 51-23.5 0-45.1-17.7-49.9-40.8C-.2 31.9 31.9-.2 67.2 7.1z"/><path d="M47.3 36.1c-4.6 1.4-10 7.1-11.3 12.1-3.7 13.6 9.2 25.8 22.5 21.3l4.8-1.7 5.8 5.8 5.9 5.8 2.2-2.2 2.2-2.2-4.8-4.9c-3.1-3.2-5.4-4.7-6.4-4.3-1.7.6-1.6.1 1.3-7.7 1.8-4.9 1.4-8.7-1.7-14.1-3.7-6.8-12.8-10.3-20.5-7.9zm13.3 9.3c2.8 2.8 3.4 4.2 3.4 7.6 0 3.4-.6 4.8-3.4 7.6S56.4 64 53 64c-3.4 0-4.8-.6-7.6-3.4-2.7-2.7-3.4-4.2-3.4-7.3.1-7.1 4.2-11.2 11.4-11.3 3 0 4.5.7 7.2 3.4z"/></svg>